<?xml version="1.0" encoding="utf-8"?>
<!-- Generator: Adobe Illustrator 21.0.0, SVG Export Plug-In . SVG Version: 6.00 Build 0)  -->
<svg xmlns="http://www.w3.org/2000/svg" xmlns:xlink="http://www.w3.org/1999/xlink" version="1.1" id="Layer_1" x="0px" y="0px" viewBox="0 0 512 512" style="enable-background:new 0 0 512 512;" xml:space="preserve">
<style type="text/css">
	.st0{fill:none;stroke:#00A0E9;stroke-width:20;stroke-linecap:round;stroke-linejoin:round;stroke-miterlimit:10;}
	.st1{fill:none;stroke:#E60012;stroke-width:20;stroke-linecap:round;stroke-linejoin:round;stroke-miterlimit:10;}
	.st2{fill:none;stroke:#009944;stroke-width:20;stroke-linecap:round;stroke-linejoin:round;stroke-miterlimit:10;}
</style>
<path class="st0" d="M361.2,191c0.9-7.9,1.4-15.9,1.7-24l-0.1,0c0-58.4-47.3-105.7-105.7-105.7S151.5,108.6,151.5,167l-0.1,0  c2.8,74.6,30,143,73.9,197.3"/>
<path class="st1" d="M205,219.5c16.9-2.6,34.2-4,51.9-4c56.6,0,109.8,14,156.6,38.8l-0.1,0.3c31.7,18.2,53,52.5,53,91.7  c0,58.4-47.3,105.7-105.7,105.7c-19.4,0-37.7-5.3-53.3-14.4l0.1,0c-6.5-4.1-12.9-8.5-19.2-13"/>
<path class="st2" d="M121,244.3c-6.9,3.1-13.7,6.4-20.3,9.9l0.2,0.3c-31.6,18.3-52.9,52.4-52.9,91.6c0,58.4,47.3,105.7,105.7,105.7  c19.3,0,37.4-5.2,53-14.2l0.1,0.2c60.6-38.1,108-95.1,134.2-162.8"/>
</svg>
